<svg id="Layer_1" data-name="Layer 1"   xmlns="http://www.w3.org/2000/svg" viewBox="0 0 400 400"><path fill="white" d="M164.81,81.77h-45a17.53,17.53,0,0,0-15.18,8.76L42,198.92a17.47,17.47,0,0,0,0,17.52l62.57,108.39a17.53,17.53,0,0,0,15.18,8.76h45.05a17.53,17.53,0,0,0,17.53-17.53V99.3A17.53,17.53,0,0,0,164.81,81.77Z"/><path fill="white" d="M217.8,81.77h45A17.52,17.52,0,0,1,278,90.53l52.46,90.86a17.53,17.53,0,0,1-15.18,26.29H217.8a17.53,17.53,0,0,1-17.53-17.53V99.3A17.53,17.53,0,0,1,217.8,81.77Z"/></svg>